<?xml version="1.0" encoding="UTF-8" standalone="no"?>
<svg
   xmlns:dc="http://purl.org/dc/elements/1.1/"
   xmlns:cc="http://creativecommons.org/ns#"
   xmlns:rdf="http://www.w3.org/1999/02/22-rdf-syntax-ns#"
   xmlns:svg="http://www.w3.org/2000/svg"
   xmlns="http://www.w3.org/2000/svg"
   xmlns:sodipodi="http://sodipodi.sourceforge.net/DTD/sodipodi-0.dtd"
   xmlns:inkscape="http://www.inkscape.org/namespaces/inkscape"
   sodipodi:docname="Zeichnung-2.svg"
   inkscape:version="1.0 (4035a4fb49, 2020-05-01)"
   id="svg912"
   version="1.1"
   viewBox="0 0 207.45816 136.27156"
   height="136.27156mm"
   width="207.45816mm">
  <defs
     id="defs906" />
  <sodipodi:namedview
     inkscape:window-maximized="1"
     inkscape:window-y="-8"
     inkscape:window-x="-8"
     inkscape:window-height="1017"
     inkscape:window-width="1920"
     inkscape:snap-page="false"
     showgrid="false"
     inkscape:document-rotation="0"
     inkscape:current-layer="layer1"
     inkscape:document-units="mm"
     inkscape:cy="561.54842"
     inkscape:cx="102.98879"
     inkscape:zoom="0.49497475"
     inkscape:pageshadow="2"
     inkscape:pageopacity="0.0"
     borderopacity="1.0"
     bordercolor="#666666"
     pagecolor="#ffffff"
     id="base" />
  <metadata
     id="metadata909">
    <rdf:RDF>
      <cc:Work
         rdf:about="">
        <dc:format>image/svg+xml</dc:format>
        <dc:type
           rdf:resource="http://purl.org/dc/dcmitype/StillImage" />
        <dc:title></dc:title>
      </cc:Work>
    </rdf:RDF>
  </metadata>
  <g
     transform="translate(-1.3117988,0.07635278)"
     id="layer1"
     inkscape:groupmode="layer"
     inkscape:label="Ebene 1">
    <g
       transform="matrix(0.90799259,0,0,0.90799259,75.69455,5.0084444)"
       id="g412">
      <path
         id="path414"
         style="fill:#231f20;fill-opacity:1;fill-rule:nonzero;stroke:none"
         d="m 0,0 c -2.24,-0.16 -4.48,-0.32 -6.88,-0.32 -19.2,0 -36.64,7.84 -49.28,20.48 -12.640003,12.479999 -20.479999,29.920002 -20.479999,49.280002 0,19.199997 7.839996,36.639998 20.479999,49.279998 12.64,12.64 30.08,20.48 49.28,20.48 0.64,0 1.28,-0.16001 1.76,-0.16001 l 0.16,5.44001 c -0.64,0 -1.28,0 -1.92,0 -41.44,0 -75.039998,-33.6 -75.039998,-75.039998 C -81.919998,28 -48.32,-5.6 -6.88,-5.6 c 2.56,0 4.96,0 7.36,0.32 z" />
    </g>
    <g
       id="g416"
       transform="matrix(0.90799259,0,0,0.90799259,-445.4205,-813.05658)">
      <path
         id="path418"
         style="fill:#231f20;fill-opacity:1;fill-rule:evenodd;stroke:none"
         d="m 586.23999,968.15997 h 57.91998 v 5.60004 h -57.91998 z m -90.56,0 h 71.52002 v 5.60004 h -71.52002 z" />
    </g>
    <g
       id="g420"
       transform="matrix(0.90799259,0,0,0.90799259,-445.42046,-813.05658)">
      <path
         id="path422"
         style="fill:#231f20;fill-opacity:1;fill-rule:nonzero;stroke:none"
         d="m 644,900.64001 h -71.52002 v 144.79989 h -5.44 V 895.35998 H 644 Z" />
    </g>
    <g
       transform="matrix(0.90799259,0,0,0.90799259,166.05798,102.92635)"
       id="g424">
      <path
         id="path426"
         style="fill:#231f20;fill-opacity:1;fill-rule:nonzero;stroke:none"
         d="M 0,0 H -4.8 V -3.2 H 0.64 V -4.8 H -6.72 V 6.56 H 0.64 V 4.96 H -4.8 V 1.6 H 0 Z" />
    </g>
    <g
       transform="matrix(0.90799259,0,0,0.90799259,169.5447,98.567984)"
       id="g428">
      <path
         id="path430"
         style="fill:#231f20;fill-opacity:1;fill-rule:nonzero;stroke:none"
         d="M 0,0 H -2.24 L 1.12,5.6 -2.4,11.36 H 0 L 2.4,7.2 4.8,11.36 H 7.2 L 3.68,5.6 7.04,0 H 4.8 L 2.4,4 Z" />
    </g>
    <g
       transform="matrix(0.90799259,0,0,0.90799259,185.38006,103.36219)"
       id="g432">
      <path
         id="path434"
         style="fill:#231f20;fill-opacity:1;fill-rule:nonzero;stroke:none"
         d="m 0,0 c 0,-1.12 -0.16,-2.08 -0.64,-2.88 -0.32,-0.8 -0.96,-1.44 -1.6,-1.92 -0.8,-0.48 -1.6,-0.64 -2.56,-0.64 -0.8,0 -1.6,0.16 -2.4,0.64 -0.64,0.48 -1.28,1.12 -1.6,1.92 -0.48,0.8 -0.64,1.92 -0.64,2.88 v 0.64 c 0,1.12 0.16,2.08 0.64,2.88 0.32,0.96 0.96,1.6 1.6,2.08 0.8,0.32 1.6,0.64 2.56,0.64 0.32,0 0.64,0 0.96,-0.16 L -1.28,8 0,6.88 -1.92,5.28 C -1.28,4.8 -0.8,4.32 -0.48,3.52 -0.16,2.72 0,1.76 0,0.64 Z m -1.92,0.64 c 0,1.28 -0.32,2.24 -0.8,2.88 -0.48,0.8 -1.12,1.12 -1.92,1.12 -0.96,0 -1.6,-0.32 -2.08,-1.12 -0.48,-0.64 -0.8,-1.6 -0.8,-2.88 V 0 c 0,-1.28 0.32,-2.24 0.8,-2.88 0.48,-0.64 1.12,-0.96 1.92,-0.96 0.96,0 1.6,0.32 2.08,0.96 0.48,0.64 0.8,1.6 0.8,2.88 z" />
    </g>
    <g
       transform="matrix(0.90799259,0,0,0.90799259,192.93456,98.567984)"
       id="g436">
      <path
         id="path438"
         style="fill:#231f20;fill-opacity:1;fill-rule:nonzero;stroke:none"
         d="m 0,0 v 7.52 c 0,1.6 -0.8,2.4 -2.24,2.4 C -3.04,9.92 -3.52,9.6 -4,9.28 -4.32,8.8 -4.48,8.32 -4.48,7.52 V 0 h -2.08 v 7.52 c 0,1.28 0.48,2.24 1.28,2.88 0.64,0.8 1.76,1.12 3.04,1.12 C -0.96,11.52 0,11.2 0.8,10.4 1.6,9.76 1.92,8.8 1.92,7.52 V 0 Z" />
    </g>
    <g
       id="g440"
       transform="matrix(0.90799259,0,0,0.90799259,-445.42047,-813.05658)">
      <path
         id="path442"
         style="fill:#231f20;fill-opacity:1;fill-rule:nonzero;stroke:none"
         d="m 707.20001,1003.84 h 2.08002 v 11.52 h -2.08002 z" />
    </g>
    <g
       transform="matrix(0.90799259,0,0,0.90799259,203.68521,108.8828)"
       id="g444">
      <path
         id="path446"
         style="fill:#231f20;fill-opacity:1;fill-rule:nonzero;stroke:none"
         d="m 0,0 c 1.12,0 1.92,-0.32 2.72,-0.64 0.8,-0.48 1.44,-1.12 1.92,-1.92 0.32,-0.8 0.64,-1.76 0.64,-2.88 V -6.08 C 5.28,-7.04 4.96,-8 4.64,-8.8 4.16,-9.6 3.52,-10.24 2.88,-10.72 2.08,-11.2 1.12,-11.36 0.16,-11.36 H -3.2 V 0 Z m 0.16,-9.76 c 0.96,0 1.76,0.32 2.24,0.96 0.64,0.64 0.8,1.6 0.8,2.72 v 0.64 C 3.2,-4.16 3.04,-3.2 2.4,-2.56 1.92,-1.92 1.12,-1.6 0,-1.6 h -1.28 v -8.16 z" />
    </g>
    <g
       transform="matrix(0.90799259,0,0,0.90799259,116.22736,120.50511)"
       id="g448">
      <path
         id="path450"
         style="fill:#231f20;fill-opacity:1;fill-rule:nonzero;stroke:none"
         d="m 0,0 h -4.64 v -3.36 h 5.28 v -1.6 h -7.2 V 6.4 h 1.92 V 1.6 H 0 Z" />
    </g>
    <g
       transform="matrix(0.90799259,0,0,0.90799259,126.97801,116.00144)"
       id="g452">
      <path
         id="path454"
         style="fill:#231f20;fill-opacity:1;fill-rule:nonzero;stroke:none"
         d="m 0,0 v 7.52 c 0,1.6 -0.8,2.4 -2.24,2.4 C -3.04,9.92 -3.68,9.6 -4,9.28 -4.32,8.8 -4.64,8.32 -4.64,7.52 V 0 h -1.92 v 7.52 c 0,1.28 0.32,2.24 1.12,2.88 0.8,0.8 1.92,1.12 3.2,1.12 C -0.96,11.52 0,11.2 0.8,10.4 1.6,9.76 1.92,8.8 1.92,7.52 V 0 Z" />
    </g>
    <g
       transform="matrix(0.90799259,0,0,0.90799259,139.47194,126.31632)"
       id="g456">
      <path
         id="path458"
         style="fill:#231f20;fill-opacity:1;fill-rule:nonzero;stroke:none"
         d="M 0,0 H 2.08 V -0.16 L -0.48,-4.8 C 0.16,-5.12 0.8,-5.44 1.12,-6.08 1.44,-6.56 1.6,-7.2 1.6,-8 c 0,-1.12 -0.32,-1.92 -0.96,-2.56 -0.8,-0.48 -1.76,-0.8 -3.04,-0.8 h -4 V 0 h 1.92 v -4.32 h 2.24 z m -4.48,-9.76 h 2.08 c 0.64,0 1.28,0.16 1.6,0.48 0.32,0.32 0.48,0.8 0.48,1.44 0,0.64 -0.16,0.96 -0.48,1.44 -0.48,0.32 -0.96,0.48 -1.6,0.48 h -2.08 z" />
    </g>
    <g
       transform="matrix(0.90799259,0,0,0.90799259,153.85457,116.00144)"
       id="g460">
      <path
         id="path462"
         style="fill:#231f20;fill-opacity:1;fill-rule:nonzero;stroke:none"
         d="M 0,0 H -1.92 V 8 L -7.04,0 h -1.92 v 11.36 h 1.92 V 3.2 l 5.12,8.16 H 0 Z" />
    </g>
    <g
       id="g464"
       transform="matrix(0.90799259,0,0,0.90799259,-445.42046,-813.05658)">
      <path
         id="path466"
         style="fill:#231f20;fill-opacity:1;fill-rule:nonzero;stroke:none"
         d="m 665.59998,1023.04 h 2.24005 v 11.5201 h -2.24005 z" />
    </g>
    <g
       transform="matrix(0.90799259,0,0,0.90799259,173.32193,116.00144)"
       id="g468">
      <path
         id="path470"
         style="fill:#231f20;fill-opacity:1;fill-rule:nonzero;stroke:none"
         d="m 0,0 h -9.12 v 1.6 h 3.52 v 9.76 h 2.08 V 1.6 H 0 Z" />
    </g>
    <g
       transform="matrix(0.90799259,0,0,0.90799259,183.34616,116.00144)"
       id="g472">
      <path
         id="path474"
         style="fill:#231f20;fill-opacity:1;fill-rule:nonzero;stroke:none"
         d="m 0,0 v 7.52 c 0,1.6 -0.8,2.4 -2.24,2.4 C -3.04,9.92 -3.52,9.6 -4,9.28 -4.32,8.8 -4.48,8.32 -4.48,7.52 V 0 h -2.08 v 7.52 c 0,1.28 0.48,2.24 1.12,2.88 0.8,0.8 1.92,1.12 3.2,1.12 C -0.96,11.52 0,11.2 0.8,10.4 1.6,9.76 1.92,8.8 1.92,7.52 V 0 Z" />
    </g>
    <g
       transform="matrix(0.90799259,0,0,0.90799259,195.84014,126.31632)"
       id="g476">
      <path
         id="path478"
         style="fill:#231f20;fill-opacity:1;fill-rule:nonzero;stroke:none"
         d="M 0,0 H 2.08 V -0.16 L -0.48,-4.8 C 0.32,-5.12 0.8,-5.44 1.12,-6.08 1.44,-6.56 1.6,-7.2 1.6,-8 c 0,-1.12 -0.32,-1.92 -0.96,-2.56 -0.8,-0.48 -1.76,-0.8 -3.04,-0.8 h -4 V 0 h 1.92 v -4.32 h 2.24 z m -4.48,-9.76 h 2.08 c 0.64,0 1.28,0.16 1.6,0.48 0.32,0.32 0.48,0.8 0.48,1.44 0,0.64 -0.16,0.96 -0.48,1.44 -0.48,0.32 -0.96,0.48 -1.6,0.48 h -2.08 z" />
    </g>
    <g
       transform="matrix(0.90799259,0,0,0.90799259,208.04356,120.35981)"
       id="g480">
      <path
         id="path482"
         style="fill:#231f20;fill-opacity:1;fill-rule:nonzero;stroke:none"
         d="M 0,0 H -4.64 V -3.2 H 0.8 V -4.8 H -6.56 V 6.56 H 0.8 V 4.96 H -4.64 V 1.6 H 0 Z" />
    </g>
  </g>
</svg>
